<svg width="33" height="31" viewBox="0 0 33 31" fill="none" xmlns="http://www.w3.org/2000/svg">
<g clip-path="url(#clip0_128_7673)">
<path d="M21.5026 18.0566H20.4376L20.0602 17.7266C21.3813 16.3332 22.1766 14.5242 22.1766 12.5563C22.1766 8.16822 18.2538 4.61133 13.4144 4.61133C8.57489 4.61133 4.6521 8.16822 4.6521 12.5563C4.6521 16.9443 8.57489 20.5012 13.4144 20.5012C15.5847 20.5012 17.5798 19.7801 19.1166 18.5822L19.4805 18.9245V19.8901L26.2207 25.9893L28.2293 24.1681L21.5026 18.0566ZM13.4144 18.0566C10.0577 18.0566 7.34818 15.5998 7.34818 12.5563C7.34818 9.51275 10.0577 7.05593 13.4144 7.05593C16.771 7.05593 19.4805 9.51275 19.4805 12.5563C19.4805 15.5998 16.771 18.0566 13.4144 18.0566Z" fill="black"/>
</g>
<defs>
<clipPath id="clip0_128_7673">
<rect width="32.3529" height="29.3352" fill="white" transform="translate(0.60791 0.944336)"/>
</clipPath>
</defs>
</svg>
