<svg width="33" height="31" viewBox="0 0 33 31" fill="none" xmlns="http://www.w3.org/2000/svg">
<g clip-path="url(#clip0_107_8441)">
<path d="M21.3125 18.0833H20.2262L19.8413 17.7346C21.1888 16.2621 22 14.3504 22 12.2708C22 7.63375 17.9987 3.875 13.0625 3.875C8.12625 3.875 4.125 7.63375 4.125 12.2708C4.125 16.9079 8.12625 20.6667 13.0625 20.6667C15.2762 20.6667 17.3112 19.9046 18.8787 18.6388L19.25 19.0004V20.0208L26.125 26.4662L28.1737 24.5417L21.3125 18.0833ZM13.0625 18.0833C9.63875 18.0833 6.875 15.4871 6.875 12.2708C6.875 9.05458 9.63875 6.45833 13.0625 6.45833C16.4862 6.45833 19.25 9.05458 19.25 12.2708C19.25 15.4871 16.4862 18.0833 13.0625 18.0833Z" fill="white"/>
</g>
<defs>
<clipPath id="clip0_107_8441">
<rect width="33" height="31" fill="white"/>
</clipPath>
</defs>
</svg>
